<svg width="27" height="27" viewBox="0 0 27 27" fill="none" xmlns="http://www.w3.org/2000/svg">
<g id="home">
<path id="Icon" d="M3.375 13.5L5.625 11.25M5.625 11.25L13.5 3.375L21.375 11.25M5.625 11.25V22.5C5.625 23.1213 6.12868 23.625 6.75 23.625H10.125M21.375 11.25L23.625 13.5M21.375 11.25V22.5C21.375 23.1213 20.8713 23.625 20.25 23.625H16.875M10.125 23.625C10.7463 23.625 11.25 23.1213 11.25 22.5V18C11.25 17.3787 11.7537 16.875 12.375 16.875H14.625C15.2463 16.875 15.75 17.3787 15.75 18V22.5C15.75 23.1213 16.2537 23.625 16.875 23.625M10.125 23.625H16.875" stroke="black" stroke-width="2" stroke-linecap="round" stroke-linejoin="round"/>
</g>
</svg>
