<svg width="27" height="27" viewBox="0 0 27 27" fill="none" xmlns="http://www.w3.org/2000/svg">
<g id="icon/settings">
<path id="Vector" d="M13.7477 2.25H13.2527C12.656 2.25 12.0837 2.48705 11.6618 2.90901C11.2398 3.33097 11.0027 3.90326 11.0027 4.5V4.7025C11.0023 5.09707 10.8982 5.48459 10.7007 5.82619C10.5033 6.1678 10.2195 6.45147 9.87775 6.64875L9.394 6.93C9.05195 7.12748 8.66395 7.23144 8.269 7.23144C7.87404 7.23144 7.48604 7.12748 7.144 6.93L6.97525 6.84C6.45894 6.54217 5.84556 6.46137 5.26975 6.61535C4.69393 6.76932 4.20274 7.14548 3.904 7.66125L3.6565 8.08875C3.35867 8.60505 3.27787 9.21843 3.43184 9.79425C3.58582 10.3701 3.96197 10.8613 4.47775 11.16L4.6465 11.2725C4.98656 11.4688 5.26932 11.7507 5.46668 12.0902C5.66404 12.4296 5.76913 12.8148 5.7715 13.2075V13.7812C5.77307 14.1777 5.66985 14.5676 5.4723 14.9113C5.27474 15.2551 4.98986 15.5405 4.6465 15.7387L4.47775 15.84C3.96197 16.1387 3.58582 16.6299 3.43184 17.2058C3.27787 17.7816 3.35867 18.3949 3.6565 18.9112L3.904 19.3388C4.20274 19.8545 4.69393 20.2307 5.26975 20.3847C5.84556 20.5386 6.45894 20.4578 6.97525 20.16L7.144 20.07C7.48604 19.8725 7.87404 19.7686 8.269 19.7686C8.66395 19.7686 9.05195 19.8725 9.394 20.07L9.87775 20.3513C10.2195 20.5485 10.5033 20.8322 10.7007 21.1738C10.8982 21.5154 11.0023 21.9029 11.0027 22.2975V22.5C11.0027 23.0967 11.2398 23.669 11.6618 24.091C12.0837 24.5129 12.656 24.75 13.2527 24.75H13.7477C14.3445 24.75 14.9168 24.5129 15.3387 24.091C15.7607 23.669 15.9977 23.0967 15.9977 22.5V22.2975C15.9982 21.9029 16.1023 21.5154 16.2998 21.1738C16.4972 20.8322 16.781 20.5485 17.1227 20.3513L17.6065 20.07C17.9485 19.8725 18.3365 19.7686 18.7315 19.7686C19.1265 19.7686 19.5145 19.8725 19.8565 20.07L20.0252 20.16C20.5415 20.4578 21.1549 20.5386 21.7307 20.3847C22.3066 20.2307 22.7978 19.8545 23.0965 19.3388L23.344 18.9C23.6418 18.3837 23.7226 17.7703 23.5686 17.1945C23.4147 16.6187 23.0385 16.1275 22.5227 15.8287L22.354 15.7387C22.0106 15.5405 21.7258 15.2551 21.5282 14.9113C21.3306 14.5676 21.2274 14.1777 21.229 13.7812V13.2188C21.2274 12.8223 21.3306 12.4324 21.5282 12.0887C21.7258 11.7449 22.0106 11.4595 22.354 11.2613L22.5227 11.16C23.0385 10.8613 23.4147 10.3701 23.5686 9.79425C23.7226 9.21843 23.6418 8.60505 23.344 8.08875L23.0965 7.66125C22.7978 7.14548 22.3066 6.76932 21.7307 6.61535C21.1549 6.46137 20.5415 6.54217 20.0252 6.84L19.8565 6.93C19.5145 7.12748 19.1265 7.23144 18.7315 7.23144C18.3365 7.23144 17.9485 7.12748 17.6065 6.93L17.1227 6.64875C16.781 6.45147 16.4972 6.1678 16.2998 5.82619C16.1023 5.48459 15.9982 5.09707 15.9977 4.7025V4.5C15.9977 3.90326 15.7607 3.33097 15.3387 2.90901C14.9168 2.48705 14.3445 2.25 13.7477 2.25Z" stroke="black" stroke-width="2" stroke-linecap="round" stroke-linejoin="round"/>
<path id="Vector_2" d="M13.5 16.875C15.364 16.875 16.875 15.364 16.875 13.5C16.875 11.636 15.364 10.125 13.5 10.125C11.636 10.125 10.125 11.636 10.125 13.5C10.125 15.364 11.636 16.875 13.5 16.875Z" stroke="black" stroke-width="2" stroke-linecap="round" stroke-linejoin="round"/>
</g>
</svg>
